STARTFONT 2.1
COMMENT Created by fdbbdf
FONT times22i
SIZE 22 78 78
FONTBOUNDINGBOX 24 24 -2 -6
STARTPROPERTIES 4
Ownership "  Copyright (c) 1984 Adobe Systems, Inc.  /adobe/fonttools/bitmaps/stdfontvec.ps TI24.bits  TOTAL BITMAP BYTES 3944  GUIDELINES -5 0 11 17 DONE  WIDTHERR -172 -163  "
FONT_ASCENT 18
FONT_DESCENT 6
DEFAULT_CHAR 32
ENDPROPERTIES
CHARS 95
STARTCHAR sp
ENCODING -1 32
SWIDTH 0 0
DWIDTH 6 0
BBX 0 0 0 0
BITMAP
ENDCHAR
STARTCHAR !
ENCODING -1 33
SWIDTH 0 0
DWIDTH 8 0
BBX 7 17 1 -1
BITMAP
0600
0600
0e00
0c00
0c00
1800
1800
1800
1000
3000
2000
2000
0000
0000
4000
c000
c000
ENDCHAR
STARTCHAR "
ENCODING -1 34
SWIDTH 0 0
DWIDTH 11 0
BBX 6 5 4 11
BITMAP
cc00
cc00
cc00
8800
8800
ENDCHAR
STARTCHAR #
ENCODING -1 35
SWIDTH 0 0
DWIDTH 13 0
BBX 13 17 0 -1
BITMAP
0c60
0c60
0c60
18c0
18c0
7ff8
18c0
18c0
18c0
3180
3180
ffe0
3180
3180
6300
6300
6300
ENDCHAR
STARTCHAR $
ENCODING -1 36
SWIDTH 0 0
DWIDTH 12 0
BBX 11 21 0 -3
BITMAP
0080
0080
0f80
19e0
3160
3320
3220
3a00
1e00
0f00
0780
0580
04c0
0cc0
88c0
88c0
c980
eb80
3e00
1000
1000
ENDCHAR
STARTCHAR %
ENCODING -1 37
SWIDTH 0 0
DWIDTH 20 0
BBX 17 17 1 -1
BITMAP
1e180000
3bf80000
71100000
61300000
e1200000
c3600000
c2400000
c6cf0000
ec9d8000
79b88000
01308000
03708000
02618000
06610000
04630000
0c760000
083c0000
ENDCHAR
STARTCHAR &
ENCODING -1 38
SWIDTH 0 0
DWIDTH 19 0
BBX 16 17 1 -1
BITMAP
00e0
01b0
0330
0330
0360
03c0
0380
0700
0f1f
3b0c
7318
e1b0
c1e0
c0c0
c0e0
63b3
3e1e
ENDCHAR
STARTCHAR '
ENCODING -1 39
SWIDTH 0 0
DWIDTH 7 0
BBX 4 6 2 10
BITMAP
7000
7000
3000
3000
6000
c000
ENDCHAR
STARTCHAR (
ENCODING -1 40
SWIDTH 0 0
DWIDTH 8 0
BBX 7 22 1 -6
BITMAP
0200
0400
0c00
1800
1800
3000
3000
6000
6000
6000
c000
c000
c000
c000
c000
c000
c000
4000
6000
6000
2000
2000
ENDCHAR
STARTCHAR )
ENCODING -1 41
SWIDTH 0 0
DWIDTH 8 0
BBX 7 22 -1 -6
BITMAP
0800
0800
0c00
0c00
0400
0600
0600
0600
0600
0600
0600
0600
0c00
0c00
0c00
1800
1800
3000
3000
6000
4000
8000
ENDCHAR
STARTCHAR *
ENCODING -1 42
SWIDTH 0 0
DWIDTH 13 0
BBX 10 10 1 6
BITMAP
0c00
0c00
ccc0
ffc0
1e00
1e00
ffc0
ccc0
0c00
0c00
ENDCHAR
STARTCHAR +
ENCODING -1 43
SWIDTH 0 0
DWIDTH 12 0
BBX 10 10 1 1
BITMAP
0c00
0c00
0c00
0c00
ffc0
ffc0
0c00
0c00
0c00
0c00
ENDCHAR
STARTCHAR ,
ENCODING -1 44
SWIDTH 0 0
DWIDTH 6 0
BBX 3 6 -1 -4
BITMAP
6000
6000
6000
2000
6000
c000
ENDCHAR
STARTCHAR -
ENCODING -1 45
SWIDTH 0 0
DWIDTH 9 0
BBX 7 2 1 5
BITMAP
fe00
fe00
ENDCHAR
STARTCHAR .
ENCODING -1 46
SWIDTH 0 0
DWIDTH 6 0
BBX 2 3 1 -1
BITMAP
c000
c000
c000
ENDCHAR
STARTCHAR /
ENCODING -1 47
SWIDTH 0 0
DWIDTH 7 0
BBX 7 17 0 -1
BITMAP
0600
0600
0400
0c00
0c00
0800
1800
1800
1000
3000
3000
2000
6000
6000
4000
c000
c000
ENDCHAR
STARTCHAR 0
ENCODING -1 48
SWIDTH 0 0
DWIDTH 13 0
BBX 12 17 0 -1
BITMAP
03c0
0c60
1860
3830
3030
7030
7030
6070
e070
e070
c060
c0e0
c0c0
c1c0
c180
6300
3c00
ENDCHAR
STARTCHAR 1
ENCODING -1 49
SWIDTH 0 0
DWIDTH 11 0
BBX 10 17 1 -1
BITMAP
0380
1f80
0380
0300
0700
0700
0600
0600
0e00
0e00
0c00
0c00
1c00
1800
1800
3800
fe00
ENDCHAR
STARTCHAR 2
ENCODING -1 50
SWIDTH 0 0
DWIDTH 12 0
BBX 11 17 0 -1
BITMAP
0380
0fc0
18e0
1860
0060
0060
00c0
00c0
0180
0300
0600
0c00
1800
3020
6060
ffc0
ff80
ENDCHAR
STARTCHAR 3
ENCODING -1 51
SWIDTH 0 0
DWIDTH 12 0
BBX 11 17 0 -1
BITMAP
07c0
0ee0
0c60
0060
0040
00c0
0380
0f00
0380
01c0
00c0
00c0
00c0
0080
e180
f300
7e00
ENDCHAR
STARTCHAR 4
ENCODING -1 52
SWIDTH 0 0
DWIDTH 12 0
BBX 12 17 0 -1
BITMAP
0030
0070
00e0
01e0
0360
0660
0cc0
18c0
30c0
6180
c180
ffe0
ffe0
0300
0300
0600
0600
ENDCHAR
STARTCHAR 5
ENCODING -1 53
SWIDTH 0 0
DWIDTH 12 0
BBX 12 17 0 -1
BITMAP
07f0
0fe0
0800
1800
1000
3e00
3f80
0380
01c0
00c0
00c0
00c0
00c0
0180
c180
e700
fc00
ENDCHAR
STARTCHAR 6
ENCODING -1 54
SWIDTH 0 0
DWIDTH 12 0
BBX 11 17 1 -1
BITMAP
0060
01c0
0700
0c00
1800
3000
6f00
7180
e1c0
c0c0
c0c0
c0c0
c1c0
c180
e380
7700
3c00
ENDCHAR
STARTCHAR 7
ENCODING -1 55
SWIDTH 0 0
DWIDTH 13 0
BBX 12 17 1 -1
BITMAP
3ff0
7ff0
c060
80c0
00c0
0180
0300
0300
0600
0c00
0c00
1800
3000
3000
6000
e000
c000
ENDCHAR
STARTCHAR 8
ENCODING -1 56
SWIDTH 0 0
DWIDTH 12 0
BBX 12 17 0 -1
BITMAP
07c0
0c60
1830
1830
1830
1c60
0ec0
0700
0f80
39c0
60e0
e060
c060
c060
e0c0
71c0
3f00
ENDCHAR
STARTCHAR 9
ENCODING -1 57
SWIDTH 0 0
DWIDTH 12 0
BBX 12 17 0 -1
BITMAP
07c0
1ee0
3870
3030
7030
6030
6070
6070
70e0
39e0
1ec0
00c0
0180
0300
0e00
3800
e000
ENDCHAR
STARTCHAR :
ENCODING -1 58
SWIDTH 0 0
DWIDTH 8 0
BBX 5 11 1 -1
BITMAP
1800
1800
1800
0000
0000
0000
0000
0000
c000
c000
c000
ENDCHAR
STARTCHAR ;
ENCODING -1 59
SWIDTH 0 0
DWIDTH 8 0
BBX 5 14 2 -4
BITMAP
1800
1800
1800
0000
0000
0000
0000
0000
6000
6000
6000
2000
6000
c000
ENDCHAR
STARTCHAR <
ENCODING -1 60
SWIDTH 0 0
DWIDTH 17 0
BBX 14 12 1 0
BITMAP
000c
007c
01f0
0780
1e00
7000
7000
1c00
0f00
03c0
00e0
0020
ENDCHAR
STARTCHAR =
ENCODING -1 61
SWIDTH 0 0
DWIDTH 12 0
BBX 9 6 1 3
BITMAP
ff80
ff80
0000
0000
ff80
ff80
ENDCHAR
STARTCHAR >
ENCODING -1 62
SWIDTH 0 0
DWIDTH 17 0
BBX 14 12 1 0
BITMAP
0800
0e00
0780
01e0
0070
001c
001c
00f0
03c0
1f00
7c00
6000
ENDCHAR
STARTCHAR ?
ENCODING -1 63
SWIDTH 0 0
DWIDTH 12 0
BBX 9 17 3 -1
BITMAP
1e00
3300
6180
6180
0180
0380
0700
0e00
1800
3000
6000
6000
4000
0000
4000
c000
c000
ENDCHAR
STARTCHAR @
ENCODING -1 64
SWIDTH 0 0
DWIDTH 23 0
BBX 21 21 1 -6
BITMAP
00ff0000
0381c000
06006000
1c003000
18391800
30670800
70c30800
61830800
e3060800
c3060800
c7061800
c60c1000
c60c3000
c61c6000
c334c000
e1e38000
60000000
30000000
18000000
0e018000
03fe0000
ENDCHAR
STARTCHAR A
ENCODING -1 65
SWIDTH 0 0
DWIDTH 16 0
BBX 16 17 -2 -1
BITMAP
001c
003c
002c
006c
00cc
008c
018c
030c
020c
060c
0ffc
080c
180c
100c
300c
600c
f83f
ENDCHAR
STARTCHAR B
ENCODING -1 66
SWIDTH 0 0
DWIDTH 15 0
BBX 15 17 -1 -1
BITMAP
0ff0
031c
030c
070e
060e
060e
0e1c
0c38
0fe0
0c38
1c18
181c
181c
381c
3038
30f0
ffc0
ENDCHAR
STARTCHAR C
ENCODING -1 67
SWIDTH 0 0
DWIDTH 16 0
BBX 16 17 1 -1
BITMAP
01f9
070f
0e06
1c02
3802
3000
7000
7000
6000
e000
e000
e000
e000
600c
7018
3870
0fc0
ENDCHAR
STARTCHAR D
ENCODING -1 68
SWIDTH 0 0
DWIDTH 18 0
BBX 18 17 -1 -1
BITMAP
0ffc0000
030f0000
03038000
07018000
0601c000
0601c000
0e01c000
0c01c000
0c018000
0c038000
1c030000
18070000
180e0000
380c0000
30180000
30700000
ffc00000
ENDCHAR
STARTCHAR E
ENCODING -1 69
SWIDTH 0 0
DWIDTH 16 0
BBX 16 17 -1 -1
BITMAP
0fff
0303
0301
0701
0600
0608
0e08
0c18
0ff0
0c30
1c10
1810
1800
3802
3006
300c
fffc
ENDCHAR
STARTCHAR F
ENCODING -1 70
SWIDTH 0 0
DWIDTH 15 0
BBX 16 17 -1 -1
BITMAP
0fff
0303
0301
0701
0600
0608
0e08
0c18
0ff0
0c30
1c10
1810
1800
3800
3000
3000
fc00
ENDCHAR
STARTCHAR G
ENCODING -1 71
SWIDTH 0 0
DWIDTH 18 0
BBX 17 17 1 -1
BITMAP
01f90000
070f0000
0e060000
1c020000
38020000
30000000
70000000
70000000
60000000
e03f8000
e0060000
e0060000
e00c0000
600c0000
701c0000
38380000
0fd80000
ENDCHAR
STARTCHAR H
ENCODING -1 72
SWIDTH 0 0
DWIDTH 18 0
BBX 20 17 -1 -1
BITMAP
0fc3f000
0300c000
0300c000
0701c000
06018000
06018000
0e038000
0c030000
0fff0000
0c030000
1c070000
18060000
18060000
380e0000
300c0000
300c0000
fc3f0000
ENDCHAR
STARTCHAR I
ENCODING -1 73
SWIDTH 0 0
DWIDTH 8 0
BBX 10 17 -1 -1
BITMAP
0fc0
0300
0300
0700
0600
0600
0e00
0c00
0c00
0c00
1c00
1800
1800
3800
3000
3000
fc00
ENDCHAR
STARTCHAR J
ENCODING -1 74
SWIDTH 0 0
DWIDTH 10 0
BBX 12 17 -1 -1
BITMAP
03f0
00c0
00c0
01c0
0180
0180
0180
0380
0300
0300
0700
0600
0600
0e00
cc00
cc00
7800
ENDCHAR
STARTCHAR K
ENCODING -1 75
SWIDTH 0 0
DWIDTH 17 0
BBX 18 17 -1 -1
BITMAP
0fcfc000
03030000
03060000
060c0000
06180000
06300000
0e600000
0fc00000
0f800000
0dc00000
1cc00000
18e00000
18700000
38300000
30380000
301c0000
fc7f0000
ENDCHAR
STARTCHAR L
ENCODING -1 76
SWIDTH 0 0
DWIDTH 15 0
BBX 14 17 -1 -1
BITMAP
0fc0
0300
0300
0700
0600
0600
0e00
0c00
0c00
0c00
1c00
1800
1800
3804
300c
3018
fff8
ENDCHAR
STARTCHAR M
ENCODING -1 77
SWIDTH 0 0
DWIDTH 20 0
BBX 21 17 -1 -1
BITMAP
1f007800
0700e000
0700e000
0701e000
0f03e000
0b02c000
0b06c000
0b0cc000
1b89c000
11998000
11918000
11a18000
31e38000
21c30000
21830000
61870000
f91fc000
ENDCHAR
STARTCHAR N
ENCODING -1 78
SWIDTH 0 0
DWIDTH 16 0
BBX 18 17 -1 -1
BITMAP
1f03c000
07018000
07010000
05810000
0d810000
09830000
08c20000
08c20000
18e20000
10660000
10640000
10340000
30340000
203c0000
20180000
60180000
f8080000
ENDCHAR
STARTCHAR O
ENCODING -1 79
SWIDTH 0 0
DWIDTH 18 0
BBX 16 17 1 -1
BITMAP
01f0
071c
0e0e
1c06
3807
3007
7007
7007
6006
e00e
e00e
e00c
e01c
6038
7070
38e0
0f80
ENDCHAR
STARTCHAR P
ENCODING -1 80
SWIDTH 0 0
DWIDTH 15 0
BBX 16 17 -1 -1
BITMAP
0ff8
030e
0306
0707
0607
0606
0e0e
0c1c
0ff0
0c00
1c00
1800
1800
3800
3000
3000
fc00
ENDCHAR
STARTCHAR Q
ENCODING -1 81
SWIDTH 0 0
DWIDTH 18 0
BBX 16 22 1 -6
BITMAP
01f0
071c
0e0e
1c06
3807
3007
7007
7007
6006
e00e
e00e
e00c
e01c
6038
7070
38e0
1f80
0c00
1801
3806
7ffc
c3f0
ENDCHAR
STARTCHAR R
ENCODING -1 82
SWIDTH 0 0
DWIDTH 15 0
BBX 15 17 -1 -1
BITMAP
0ff0
031c
030c
060e
060e
060c
0c1c
0c38
0fe0
0cc0
18c0
1860
1860
3070
3030
3038
fc1c
ENDCHAR
STARTCHAR S
ENCODING -1 83
SWIDTH 0 0
DWIDTH 12 0
BBX 12 17 0 -1
BITMAP
07d0
0c70
1830
1820
1820
1c00
0e00
0f00
0700
0380
01c0
01c0
40c0
40c0
c0c0
e180
bf00
ENDCHAR
STARTCHAR T
ENCODING -1 84
SWIDTH 0 0
DWIDTH 14 0
BBX 14 17 2 -1
BITMAP
7ffc
c30c
8308
8708
0600
0600
0e00
0c00
0c00
0c00
1c00
1800
1800
3800
3000
3000
fc00
ENDCHAR
STARTCHAR U
ENCODING -1 85
SWIDTH 0 0
DWIDTH 18 0
BBX 17 17 2 -1
BITMAP
7e1f8000
18060000
18060000
30040000
30040000
300c0000
30080000
60080000
60080000
60180000
60100000
c0100000
c0300000
c0200000
e0600000
71c00000
3f000000
ENDCHAR
STARTCHAR V
ENCODING -1 86
SWIDTH 0 0
DWIDTH 15 0
BBX 16 17 1 -1
BITMAP
fc1f
7006
300c
3008
3018
3810
1830
1820
1860
1840
1cc0
0d80
0d00
0f00
0e00
0c00
0800
ENDCHAR
STARTCHAR W
ENCODING -1 87
SWIDTH 0 0
DWIDTH 20 0
BBX 21 17 1 -1
BITMAP
f9f8f800
30606000
30604000
3060c000
30e08000
30e18000
31e10000
31630000
33620000
32660000
36640000
3c6c0000
38680000
38780000
30700000
30600000
20400000
ENDCHAR
STARTCHAR X
ENCODING -1 88
SWIDTH 0 0
DWIDTH 16 0
BBX 17 17 -1 -1
BITMAP
3f8f8000
0e070000
06060000
070c0000
03180000
03300000
01e00000
01c00000
01c00000
01c00000
03600000
06600000
0c600000
18300000
30300000
70380000
f8fe0000
ENDCHAR
STARTCHAR Y
ENCODING -1 89
SWIDTH 0 0
DWIDTH 14 0
BBX 14 17 2 -1
BITMAP
fc7c
7030
3030
3060
18c0
1880
1980
0b00
0e00
0c00
1c00
1800
1800
3000
3000
3000
fc00
ENDCHAR
STARTCHAR Z
ENCODING -1 90
SWIDTH 0 0
DWIDTH 15 0
BBX 16 17 -1 -1
BITMAP
1fff
1807
300e
201c
0038
0070
00e0
01c0
0180
0380
0700
0e00
1c02
3806
700c
e01c
fff8
ENDCHAR
STARTCHAR [
ENCODING -1 91
SWIDTH 0 0
DWIDTH 10 0
BBX 9 21 1 -5
BITMAP
0780
0600
0600
0c00
0c00
0c00
1800
1800
1800
1800
3000
3000
3000
3000
6000
6000
6000
c000
c000
c000
f000
ENDCHAR
STARTCHAR \
ENCODING -1 92
SWIDTH 0 0
DWIDTH 7 0
BBX 7 17 0 -1
BITMAP
c000
c000
4000
6000
6000
2000
3000
3000
1000
1800
1800
0800
0c00
0c00
0400
0600
0600
ENDCHAR
STARTCHAR ]
ENCODING -1 93
SWIDTH 0 0
DWIDTH 10 0
BBX 9 21 0 -5
BITMAP
0780
0180
0180
0180
0300
0300
0300
0600
0600
0600
0600
0c00
0c00
0c00
0c00
1800
1800
1800
3000
3000
f000
ENDCHAR
STARTCHAR ^
ENCODING -1 94
SWIDTH 0 0
DWIDTH 11 0
BBX 10 10 1 6
BITMAP
0600
0600
0f00
1b00
1980
3180
6180
60c0
c0c0
c0c0
ENDCHAR
STARTCHAR _
ENCODING -1 95
SWIDTH 0 0
DWIDTH 13 0
BBX 13 2 0 -6
BITMAP
fff8
fff8
ENDCHAR
STARTCHAR `
ENCODING -1 96
SWIDTH 0 0
DWIDTH 7 0
BBX 4 6 3 10
BITMAP
3000
6000
4000
c000
e000
e000
ENDCHAR
STARTCHAR a
ENCODING -1 97
SWIDTH 0 0
DWIDTH 13 0
BBX 12 11 0 -1
BITMAP
03b0
0e70
1860
3060
60c0
60c0
c1c0
c380
c580
f9a0
70c0
ENDCHAR
STARTCHAR b
ENCODING -1 98
SWIDTH 0 0
DWIDTH 12 0
BBX 11 17 0 -1
BITMAP
1c00
0c00
0c00
1800
1800
1800
19c0
33e0
3460
3860
7060
60c0
60c0
c180
c300
c600
f800
ENDCHAR
STARTCHAR c
ENCODING -1 99
SWIDTH 0 0
DWIDTH 11 0
BBX 10 11 0 -1
BITMAP
0780
1cc0
30c0
7000
6000
e000
c000
c000
c180
e300
7c00
ENDCHAR
STARTCHAR d
ENCODING -1 100
SWIDTH 0 0
DWIDTH 13 0
BBX 13 17 0 -1
BITMAP
0038
0018
0018
0038
0030
0030
03b0
0e60
1860
3060
60c0
60c0
c1c0
c380
c580
f9a0
70c0
ENDCHAR
STARTCHAR e
ENCODING -1 101
SWIDTH 0 0
DWIDTH 10 0
BBX 9 11 0 -1
BITMAP
0700
1d80
3180
6300
6600
f800
c000
c000
c100
e600
7c00
ENDCHAR
STARTCHAR f
ENCODING -1 102
SWIDTH 0 0
DWIDTH 10 0
BBX 14 22 -2 -6
BITMAP
0038
00cc
00cc
0180
0180
0180
0ff0
0300
0300
0300
0700
0600
0600
0600
0e00
0c00
0c00
0c00
1800
d800
f000
6000
ENDCHAR
STARTCHAR g
ENCODING -1 103
SWIDTH 0 0
DWIDTH 12 0
BBX 12 16 -1 -6
BITMAP
07f0
1cc0
1860
3060
30e0
30c0
1980
0e00
1800
1c00
3f00
6780
c1c0
80c0
c180
7e00
ENDCHAR
STARTCHAR h
ENCODING -1 104
SWIDTH 0 0
DWIDTH 13 0
BBX 11 17 0 -1
BITMAP
1c00
0c00
0c00
1800
1800
1800
19c0
33e0
3460
3860
70c0
60c0
60c0
e180
c180
c1a0
c0c0
ENDCHAR
STARTCHAR i
ENCODING -1 105
SWIDTH 0 0
DWIDTH 7 0
BBX 6 16 0 -1
BITMAP
0c00
0c00
0000
0000
0000
3800
1800
1800
3000
3000
6000
6000
6000
c000
d000
6000
ENDCHAR
STARTCHAR j
ENCODING -1 106
SWIDTH 0 0
DWIDTH 7 0
BBX 9 21 -2 -6
BITMAP
0180
0180
0000
0000
0000
0700
0300
0300
0600
0600
0600
0600
0c00
0c00
0c00
0c00
1800
1800
d800
f000
6000
ENDCHAR
STARTCHAR k
ENCODING -1 107
SWIDTH 0 0
DWIDTH 12 0
BBX 11 17 0 -1
BITMAP
1c00
0c00
0c00
1800
1800
1800
33c0
3180
3300
6600
6c00
7c00
6600
c600
c300
c340
c180
ENDCHAR
STARTCHAR l
ENCODING -1 108
SWIDTH 0 0
DWIDTH 6 0
BBX 6 17 0 -1
BITMAP
1c00
0c00
0c00
1800
1800
1800
3000
3000
3000
7000
6000
6000
6000
e000
c000
d000
6000
ENDCHAR
STARTCHAR m
ENCODING -1 109
SWIDTH 0 0
DWIDTH 20 0
BBX 18 11 0 -1
BITMAP
39c38000
1be7c000
1c68c000
1870c000
30618000
30c18000
30c18000
70c30000
61830000
61834000
61818000
ENDCHAR
STARTCHAR n
ENCODING -1 110
SWIDTH 0 0
DWIDTH 13 0
BBX 11 11 0 -1
BITMAP
38c0
1be0
1c60
3860
30c0
70c0
60c0
6180
c180
c1a0
c0c0
ENDCHAR
STARTCHAR o
ENCODING -1 111
SWIDTH 0 0
DWIDTH 12 0
BBX 11 11 0 -1
BITMAP
0780
1cc0
3060
7060
6060
e0e0
c0c0
c1c0
c180
6700
3c00
ENDCHAR
STARTCHAR p
ENCODING -1 112
SWIDTH 0 0
DWIDTH 14 0
BBX 14 16 -1 -6
BITMAP
0e38
067c
068c
070c
0e0c
0c18
0c18
0c30
1860
18c0
1f00
3000
3000
3000
6000
f800
ENDCHAR
STARTCHAR q
ENCODING -1 113
SWIDTH 0 0
DWIDTH 12 0
BBX 12 16 0 -6
BITMAP
03b0
0e70
1860
3060
60c0
60c0
c1c0
c380
c580
f980
7300
0300
0300
0600
0600
1f00
ENDCHAR
STARTCHAR r
ENCODING -1 114
SWIDTH 0 0
DWIDTH 10 0
BBX 9 11 0 -1
BITMAP
3980
1b80
1d80
3800
3000
6000
6000
6000
c000
c000
c000
ENDCHAR
STARTCHAR s
ENCODING -1 115
SWIDTH 0 0
DWIDTH 9 0
BBX 8 11 0 -1
BITMAP
1d00
3300
3100
3000
3800
1c00
0e00
0600
8600
cc00
f800
ENDCHAR
STARTCHAR t
ENCODING -1 116
SWIDTH 0 0
DWIDTH 7 0
BBX 7 14 0 -1
BITMAP
0800
1800
3800
7e00
3000
3000
6000
6000
6000
6000
c000
c000
c800
7000
ENDCHAR
STARTCHAR u
ENCODING -1 117
SWIDTH 0 0
DWIDTH 12 0
BBX 11 11 0 -1
BITMAP
7860
3060
30c0
60c0
6180
6180
c380
c700
cb00
f300
6180
ENDCHAR
STARTCHAR v
ENCODING -1 118
SWIDTH 0 0
DWIDTH 12 0
BBX 11 11 0 -1
BITMAP
f0e0
3060
3060
30c0
3080
1980
1b00
1e00
1c00
1800
1000
ENDCHAR
STARTCHAR w
ENCODING -1 119
SWIDTH 0 0
DWIDTH 17 0
BBX 16 11 0 -1
BITMAP
f0c7
30c3
30c3
30c2
31c6
19c4
1acc
1ed8
1cf0
18e0
10c0
ENDCHAR
STARTCHAR x
ENCODING -1 120
SWIDTH 0 0
DWIDTH 11 0
BBX 11 11 -1 -1
BITMAP
1860
3ce0
0d80
0700
0600
0600
0f00
1b00
3300
e340
c180
ENDCHAR
STARTCHAR y
ENCODING -1 121
SWIDTH 0 0
DWIDTH 11 0
BBX 12 16 -1 -6
BITMAP
7870
1830
1830
1860
0c40
0cc0
0c80
0d80
0700
0600
0600
0c00
0800
1800
d000
e000
ENDCHAR
STARTCHAR z
ENCODING -1 122
SWIDTH 0 0
DWIDTH 10 0
BBX 9 11 0 -1
BITMAP
1f80
3f80
2180
0300
0600
0c00
1800
3000
6100
ff00
fe00
ENDCHAR
STARTCHAR {
ENCODING -1 123
SWIDTH 0 0
DWIDTH 10 0
BBX 9 22 1 -6
BITMAP
0180
0300
0600
0c00
0c00
0c00
0c00
1800
1800
3000
e000
7000
3000
3000
3000
3000
6000
6000
6000
6000
2000
1800
ENDCHAR
STARTCHAR |
ENCODING -1 124
SWIDTH 0 0
DWIDTH 6 0
BBX 6 22 0 -6
BITMAP
0400
0400
0400
0c00
0800
0800
0800
1800
1000
1000
1000
3000
2000
2000
6000
4000
4000
4000
c000
8000
8000
8000
ENDCHAR
STARTCHAR }
ENCODING -1 125
SWIDTH 0 0
DWIDTH 10 0
BBX 9 22 -1 -6
BITMAP
0c00
0200
0300
0300
0300
0300
0600
0600
0600
0600
0700
0380
0600
0c00
0c00
0c00
1800
1800
1800
3000
6000
c000
ENDCHAR
STARTCHAR ~
ENCODING -1 126
SWIDTH 0 0
DWIDTH 14 0
BBX 10 4 2 3
BITMAP
3840
7cc0
cf80
8700
ENDCHAR
ENDFONT
